<?xml version="1.0" standalone="no"?>
<!DOCTYPE svg PUBLIC "-//W3C//DTD SVG 20010904//EN"
 "http://www.w3.org/TR/2001/REC-SVG-20010904/DTD/svg10.dtd">
<svg version="1.0" xmlns="http://www.w3.org/2000/svg"
 width="735.000000pt" height="490.000000pt" viewBox="0 0 735.000000 490.000000"
 preserveAspectRatio="xMidYMid meet">

<g transform="translate(0.000000,490.000000) scale(0.100000,-0.100000)"
fill="#000000" stroke="none">
<path d="M0 2450 l0 -2450 3675 0 3675 0 0 2070 0 2070 -57 29 c-32 17 -54 30
-50 31 4 0 30 -11 57 -25 l50 -25 0 255 0 255 -35 0 c-28 0 -35 4 -35 20 0 13
-7 20 -20 20 -13 0 -20 7 -20 20 0 17 -7 20 -40 20 -33 0 -40 3 -40 20 0 17
-7 20 -40 20 -22 0 -40 5 -40 10 0 6 -9 10 -20 10 -15 0 -20 7 -20 25 0 23 -4
25 -42 27 l-43 1 45 7 45 7 -42 1 c-24 1 -43 6 -43 12 0 5 46 11 103 13 56 1
-1510 4 -3480 5 l-3583 2 0 -2450z m6135 2392 c-3 -3 -11 0 -18 7 -9 10 -8 11
6 5 10 -3 15 -9 12 -12z m185 -99 c51 -29 69 -43 54 -43 -5 0 -14 4 -19 9 -6
5 -26 18 -45 29 -110 60 -151 85 -155 93 -3 4 23 -8 57 -28 35 -19 83 -47 108
-60z m125 -73 c3 -5 2 -10 -4 -10 -5 0 -13 5 -16 10 -3 6 -2 10 4 10 5 0 13
-4 16 -10z m76 -44 c27 -19 59 -38 70 -41 11 -4 18 -9 16 -12 -7 -6 -61 22
-110 58 -56 41 -37 36 24 -5z m-2556 -82 c211 -29 525 -122 525 -157 -1 -38
-16 -40 -101 -9 -148 53 -275 87 -359 97 -19 2 -66 9 -105 15 -92 15 -388 15
-495 0 -47 -6 -128 -20 -180 -31 -66 -13 -96 -15 -99 -8 -2 7 -6 7 -12 -2 -6
-11 -9 -10 -14 4 -11 28 20 47 112 67 225 48 484 57 728 24z m2712 -10 c21
-14 40 -28 43 -31 9 -10 -54 25 -75 41 -33 25 -9 18 32 -10z m103 -59 c17 -9
30 -18 30 -21 0 -4 -59 23 -69 32 -10 9 13 3 39 -11z m-3725 -53 c-8 -9 -25
20 -18 31 3 5 10 2 15 -7 6 -10 7 -20 3 -24z m-90 -30 c-8 -9 -25 20 -18 31 3
5 10 2 15 -7 6 -10 7 -20 3 -24z m705 -17 c0 -25 1 -25 88 -27 l87 -2 -89 -3
c-82 -4 -88 -5 -83 -23 3 -11 4 -20 4 -20 -1 -1 -42 -3 -92 -6 -49 -3 -105 -9
-124 -14 -19 -5 -38 -7 -42 -4 -14 8 -247 -46 -349 -82 -212 -73 -413 -187
-578 -327 -78 -66 -83 -69 -101 -53 -18 16 -22 13 -93 -66 -129 -142 -142
-155 -80 -78 34 41 81 95 106 119 42 41 44 46 30 62 -14 16 -10 22 54 76 112
97 258 193 401 265 125 64 336 141 423 154 21 4 38 11 38 16 0 5 5 6 10 3 6
-4 35 -1 65 5 61 13 193 27 273 29 49 1 52 0 52 -24z m-790 0 c0 -8 -4 -15
-10 -15 -5 0 -10 7 -10 15 0 8 5 15 10 15 6 0 10 -7 10 -15z m4094 -24 c-3 -3
-15 6 -27 18 l-22 24 27 -19 c14 -10 24 -21 22 -23z m-2454 9 c0 -19 -11 -26
-23 -14 -8 8 3 34 14 34 5 0 9 -9 9 -20z m1525 2 c-3 -3 -11 0 -18 7 -9 10 -8
11 6 5 10 -3 15 -9 12 -12z m-3251 -27 c3 -8 1 -15 -3 -15 -5 0 -11 7 -15 15
-3 8 -1 15 3 15 5 0 11 -7 15 -15z m4247 -11 c8 -10 3 -10 -20 2 -17 9 -31 17
-31 19 0 8 40 -9 51 -21z m-3051 2 c86 -18 57 -19 -50 -2 -47 8 -69 14 -50 15
19 0 64 -6 100 -13z m620 7 c0 -5 -4 -15 -10 -23 -11 -18 -25 -7 -17 15 6 15
27 21 27 8z m-1900 -38 c10 -12 10 -15 -3 -15 -8 0 -17 7 -21 15 -3 8 -2 15 3
15 5 0 14 -7 21 -15z m1377 9 c-3 -3 -12 -4 -19 -1 -8 3 -5 6 6 6 11 1 17 -2
13 -5z m599 -32 c-8 -9 -19 -13 -22 -9 -10 9 16 38 28 31 6 -4 4 -13 -6 -22z
m-491 8 c25 -11 -1 -11 -35 0 -20 6 -21 8 -5 8 11 0 29 -3 40 -8z m2981 -38
c-5 -4 -66 26 -66 33 0 3 16 -3 35 -12 19 -9 33 -18 31 -21z m-4546 -6 c0 -5
-7 -3 -15 4 -8 7 -12 17 -9 22 7 10 24 -9 24 -26z m835 24 c3 -5 2 -10 -4 -10
-5 0 -13 5 -16 10 -3 6 -2 10 4 10 5 0 13 -4 16 -10z m55 -36 c0 -2 -9 0 -20
6 -11 6 -20 13 -20 16 0 2 9 0 20 -6 11 -6 20 -13 20 -16z m1250 12 c0 -17
-14 -29 -23 -20 -8 8 3 34 14 34 5 0 9 -6 9 -14z m-2220 -42 c0 -8 -4 -12 -10
-9 -5 3 -10 13 -10 21 0 8 5 12 10 9 6 -3 10 -13 10 -21z m1020 5 c17 -13 18
-17 5 -10 -33 17 -51 31 -40 31 6 0 21 -10 35 -21z m1280 -13 c0 -15 -18 -31
-26 -23 -7 7 7 37 17 37 5 0 9 -6 9 -14z m-1180 -31 c0 8 5 15 11 15 6 0 8 -8
5 -17 -4 -14 19 -32 112 -85 148 -84 162 -90 187 -93 49 -6 51 -6 31 -14 -14
-6 5 -20 93 -71 61 -35 109 -65 107 -68 -3 -2 -68 32 -145 77 -78 45 -150 81
-161 81 -11 0 -19 5 -17 10 1 6 -63 48 -143 94 -130 76 -145 82 -157 68 -11
-16 -12 -16 -13 0 0 25 21 28 58 7 26 -15 32 -16 32 -4z m-173 -17 c-3 -7 -5
-2 -5 12 0 14 2 19 5 13 2 -7 2 -19 0 -25z m280 10 c-3 -8 -6 -5 -6 6 -1 11 2
17 5 13 3 -3 4 -12 1 -19z m-1303 -9 c-6 -11 -24 -2 -24 11 0 5 7 7 15 4 8 -4
12 -10 9 -15z m1393 -1 c-3 -8 -6 -5 -6 6 -1 11 2 17 5 13 3 -3 4 -12 1 -19z
m-457 -3 c0 -8 -2 -15 -4 -15 -2 0 -6 7 -10 15 -3 8 -1 15 4 15 6 0 10 -7 10
-15z m547 -7 c-3 -8 -6 -5 -6 6 -1 11 2 17 5 13 3 -3 4 -12 1 -19z m965 -10
c-15 -15 -24 -6 -16 16 5 12 10 14 17 7 8 -8 8 -14 -1 -23z m-1602 -3 c0 -8
-2 -15 -4 -15 -2 0 -6 7 -10 15 -3 8 -1 15 4 15 6 0 10 -7 10 -15z m734 0 c-4
-8 -8 -15 -10 -15 -2 0 -4 7 -4 15 0 8 4 15 10 15 5 0 7 -7 4 -15z m-1659 -33
c-8 -8 -25 10 -19 20 4 6 9 5 15 -3 4 -7 6 -15 4 -17z m835 13 c0 -8 -2 -15
-4 -15 -2 0 -6 7 -10 15 -3 8 -1 15 4 15 6 0 10 -7 10 -15z m914 0 c-4 -8 -8
-15 -10 -15 -2 0 -4 7 -4 15 0 8 4 15 10 15 5 0 7 -7 4 -15z m-1004 -27 c0
-18 -2 -20 -9 -8 -6 8 -7 18 -5 22 9 14 14 9 14 -14z m1856 -6 c-8 -9 -19 -13
-22 -9 -10 9 16 38 28 31 6 -4 4 -13 -6 -22z m-762 3 c-4 -8 -10 -15 -15 -15
-4 0 -6 7 -3 15 4 8 10 15 15 15 4 0 6 -7 3 -15z m-1908 -42 c-7 -7 -26 7 -26
19 0 6 6 6 15 -2 9 -7 13 -15 11 -17z m734 6 c0 -6 -4 -7 -10 -4 -5 3 -10 11
-10 16 0 6 5 7 10 4 6 -3 10 -11 10 -16z m1256 -6 c-10 -10 -19 5 -10 18 6 11
8 11 12 0 2 -7 1 -15 -2 -18z m750 -21 c-8 -9 -19 -13 -22 -9 -10 9 16 38 28
31 6 -4 4 -13 -6 -22z m-2096 -3 c0 -6 -4 -7 -10 -4 -5 3 -10 11 -10 16 0 6 5
7 10 4 6 -3 10 -11 10 -16z m57 -8 c20 -33 104 -73 138 -67 25 6 27 5 12 -6
-15 -11 1 -23 125 -93 156 -88 179 -95 263 -78 l40 9 -43 28 c-54 36 -48 46 7
12 l41 -26 266 0 c147 0 265 -2 262 -5 -3 -3 -78 -7 -167 -9 -89 -1 -164 -6
-168 -9 -3 -4 17 -7 45 -7 29 0 52 -4 52 -10 0 -15 97 -12 104 3 4 6 4 2 2
-10 -2 -13 -3 -23 -2 -23 0 0 16 4 34 9 20 6 30 6 27 0 -4 -5 -2 -9 4 -9 6 0
19 -10 30 -22 17 -18 25 -20 44 -11 21 10 27 7 50 -18 16 -19 35 -29 54 -29
15 0 35 -5 43 -10 12 -8 12 -10 1 -10 -8 0 -12 -2 -9 -5 3 -3 16 -1 29 3 23 9
22 10 -14 23 -20 7 -37 17 -37 21 0 13 17 9 54 -13 28 -16 33 -23 23 -34 -7
-7 -15 -11 -19 -8 -5 2 -8 0 -8 -5 0 -5 8 -13 18 -16 23 -8 61 -31 74 -44 6
-6 17 -8 26 -5 9 4 13 2 9 -4 -4 -5 4 -20 17 -32 18 -17 26 -19 31 -10 5 7 4
10 -1 7 -5 -3 -18 3 -28 13 -17 17 -18 19 -3 19 9 0 17 -4 17 -9 0 -5 10 -13
21 -16 17 -6 19 -9 8 -16 -10 -6 1 -22 45 -64 44 -41 62 -52 72 -45 8 8 14 8
19 0 4 -6 1 -9 -6 -8 -6 2 -14 -3 -17 -11 -3 -10 0 -12 12 -8 14 5 15 3 6 -13
-9 -16 -8 -18 5 -14 8 4 15 1 15 -6 0 -7 8 -9 22 -4 21 6 22 5 8 -11 -14 -17
-13 -18 2 -12 12 4 15 2 11 -9 -3 -7 -1 -14 5 -14 5 0 12 -9 15 -21 5 -18 8
-19 29 -9 19 10 21 10 11 -1 -18 -18 -16 -29 3 -29 12 0 14 -4 6 -12 -5 -7 -7
-20 -3 -28 12 -29 36 -60 46 -60 6 0 18 -9 28 -20 10 -12 21 -19 25 -17 4 2
18 -7 31 -20 13 -13 19 -23 13 -23 -6 0 -18 7 -26 16 -9 8 -16 13 -16 11 0 -3
-3 -13 -7 -23 -4 -12 -3 -15 5 -10 8 4 10 2 6 -8 -3 -8 -11 -14 -17 -12 -7 1
-9 1 -4 -1 4 -3 5 -9 2 -14 -4 -5 1 -6 9 -3 9 3 17 -2 21 -15 6 -20 13 -21
177 -21 94 0 169 -2 166 -5 -5 -5 -128 -13 -263 -15 -49 -1 -83 -4 -74 -7 16
-4 28 -46 30 -98 1 -34 10 -68 16 -62 6 6 33 -17 33 -28 0 -4 -7 -4 -15 -1
-13 5 -15 -2 -10 -42 4 -26 10 -87 13 -137 l7 -90 80 -48 c112 -67 118 -78 10
-17 l-90 50 -2 -42 c-2 -24 -8 -73 -14 -111 -10 -65 -10 -68 13 -87 l23 -20
-27 9 c-24 9 -26 8 -33 -26 -3 -19 -8 -33 -11 -31 -2 3 4 43 13 89 27 131 24
365 -6 499 -110 496 -487 867 -997 981 -92 21 -389 18 -494 -4 -135 -29 -264
-77 -377 -141 -24 -14 -43 -21 -43 -16 0 5 9 12 20 15 11 3 20 10 20 15 0 5 8
6 18 3 15 -6 16 -5 2 12 -14 17 -13 18 4 12 12 -5 40 4 83 28 35 19 68 33 74
30 5 -4 6 2 2 12 -6 16 -5 16 11 4 15 -12 19 -12 34 4 16 17 16 17 -1 12 -10
-4 -16 -3 -12 2 3 5 2 11 -2 14 -5 2 -1 1 7 -2 26 -9 89 -2 118 13 17 9 34 11
42 6 7 -4 19 -6 27 -3 11 4 9 9 -7 20 -16 11 -25 12 -33 4 -6 -6 -15 -11 -21
-11 -5 0 -1 7 10 16 17 14 17 15 1 10 -10 -3 -16 -2 -13 3 3 4 -47 39 -112 77
-64 38 -124 74 -134 79 -88 53 -113 65 -129 65 -12 0 -19 7 -19 20 0 25 21 26
37 1z m636 12 c-13 -2 -33 -2 -45 0 -13 2 -3 4 22 4 25 0 35 -2 23 -4z m85 0
c-10 -2 -28 -2 -40 0 -13 2 -5 4 17 4 22 1 32 -1 23 -4z m656 -8 c-4 -8 -8
-15 -10 -15 -2 0 -4 7 -4 15 0 8 4 15 10 15 5 0 7 -7 4 -15z m-871 -2 c-7 -2
-21 -2 -30 0 -10 3 -4 5 12 5 17 0 24 -2 18 -5z m335 0 c-10 -2 -28 -2 -40 0
-13 2 -5 4 17 4 22 1 32 -1 23 -4z m-415 -10 c-7 -2 -19 -2 -25 0 -7 3 -2 5
12 5 14 0 19 -2 13 -5z m-1198 -13 c3 -5 2 -10 -4 -10 -5 0 -13 5 -16 10 -3 6
-2 10 4 10 5 0 13 -4 16 -10z m635 -18 c0 -15 -2 -15 -10 -2 -13 20 -13 33 0
25 6 -3 10 -14 10 -23z m503 21 c-7 -2 -19 -2 -25 0 -7 3 -2 5 12 5 14 0 19
-2 13 -5z m-56 -9 c-3 -3 -12 -4 -19 -1 -8 3 -5 6 6 6 11 1 17 -2 13 -5z
m1145 -16 c-7 -7 -12 -8 -12 -2 0 6 3 14 7 17 3 4 9 5 12 2 2 -3 -1 -11 -7
-17z m-1185 6 c-3 -3 -12 -4 -19 -1 -8 3 -5 6 6 6 11 1 17 -2 13 -5z m793 -4
c18 -12 2 -12 -25 0 -13 6 -15 9 -5 9 8 0 22 -4 30 -9z m1047 -7 c-9 -9 -19
-14 -23 -11 -10 10 6 28 24 28 15 0 15 -1 -1 -17z m-942 -24 c31 -12 55 -23
53 -24 -2 -2 -33 7 -68 20 -36 13 -60 24 -53 24 7 1 37 -8 68 -20z m-1385 -10
c0 -6 -4 -7 -10 -4 -5 3 -10 11 -10 16 0 6 5 7 10 4 6 -3 10 -11 10 -16z
m1756 -5 c-4 -9 -9 -15 -11 -12 -3 3 -3 13 1 22 4 9 9 15 11 12 3 -3 3 -13 -1
-22z m-2383 2 c4 -10 1 -13 -9 -9 -15 6 -19 23 -5 23 5 0 11 -7 14 -14z m892
-26 c-3 -5 -12 -10 -18 -10 -7 0 -6 4 3 10 19 12 23 12 15 0z m1215 0 c8 -5
11 -10 5 -10 -5 0 -17 5 -25 10 -8 5 -10 10 -5 10 6 0 17 -5 25 -10z m920 1
c0 -14 -18 -23 -31 -15 -8 4 -7 9 2 15 18 11 29 11 29 0z m-2482 -26 c-3 -3
-9 2 -12 12 -6 14 -5 15 5 6 7 -7 10 -15 7 -18z m1387 -11 c44 -14 91 -27 105
-28 14 -2 70 -29 125 -61 55 -32 129 -75 165 -95 36 -21 120 -70 188 -109 68
-40 126 -71 128 -68 3 2 -41 49 -98 103 -57 54 -80 79 -53 57 64 -53 159 -149
154 -156 -5 -8 48 -43 167 -110 55 -31 109 -64 119 -72 22 -18 -70 31 -155 82
-59 35 -74 35 -44 0 30 -34 47 -57 42 -57 -3 0 -25 26 -50 58 -25 31 -63 66
-84 77 -22 11 -66 36 -99 55 -33 20 -82 49 -110 64 l-50 28 50 -43 c84 -72
183 -180 242 -262 52 -74 54 -79 37 -92 -21 -16 -15 -22 -97 89 -161 219 -460
425 -717 495 -57 16 -65 21 -68 44 -4 34 2 34 103 1z m235 11 c17 -9 30 -18
30 -21 0 -4 -59 23 -69 32 -10 9 13 3 39 -11z m294 0 c-4 -8 -10 -12 -15 -9
-11 6 -2 24 11 24 5 0 7 -7 4 -15z m-1634 -5 c-8 -5 -19 -10 -25 -10 -5 0 -3
5 5 10 8 5 20 10 25 10 6 0 3 -5 -5 -10z m-884 -27 c-7 -7 -26 7 -26 19 0 6 6
6 15 -2 9 -7 13 -15 11 -17z m844 12 c0 -2 -13 -11 -30 -20 -38 -19 -40 -11
-2 9 31 17 32 18 32 11z m-316 -21 c3 -8 2 -12 -4 -9 -6 3 -10 10 -10 16 0 14
7 11 14 -7z m1775 1 c40 -20 151 -95 151 -101 0 -6 -12 1 -71 42 -25 17 -63
41 -85 52 -21 12 -35 21 -31 22 4 0 21 -7 36 -15z m837 -13 c-8 -9 -19 -13
-22 -9 -10 9 16 38 28 31 6 -4 4 -13 -6 -22z m-546 3 c-7 -9 -15 -13 -17 -11
-7 7 7 26 19 26 6 0 6 -6 -2 -15z m445 5 c3 -6 -1 -7 -9 -4 -18 7 -21 14 -7
14 6 0 13 -4 16 -10z m-3105 -45 c11 -13 10 -14 -4 -9 -9 3 -16 10 -16 15 0
13 6 11 20 -6z m520 -16 c0 -6 -4 -7 -10 -4 -5 3 -10 11 -10 16 0 6 5 7 10 4
6 -3 10 -11 10 -16z m270 16 c0 -2 -10 -9 -22 -15 -22 -11 -22 -10 -4 4 21 17
26 19 26 11z m1940 -20 c-7 -9 -15 -13 -17 -11 -7 7 7 26 19 26 6 0 6 -6 -2
-15z m544 -4 c7 -11 -22 -23 -36 -15 -6 4 -5 10 3 15 18 11 26 11 33 0z
m-2534 -5 c0 -3 -15 -14 -32 -26 l-33 -22 30 26 c31 27 35 29 35 22z m1382
-36 c20 -12 26 -20 17 -20 -9 0 -27 9 -40 20 -31 25 -18 25 23 0z m429 -7 c13
-16 12 -17 -3 -4 -17 13 -22 21 -14 21 2 0 10 -8 17 -17z m-2606 -3 c3 -5 2
-10 -4 -10 -5 0 -13 5 -16 10 -3 6 -2 10 4 10 5 0 13 -4 16 -10z m2855 -5 c-7
-9 -15 -13 -17 -11 -7 7 7 26 19 26 6 0 6 -6 -2 -15z m-2130 2 c0 -2 -12 -14
-27 -28 l-28 -24 24 28 c23 25 31 32 31 24z m1520 -28 c0 -4 -7 -6 -15 -3 -8
4 -15 10 -15 15 0 4 7 6 15 3 8 -4 15 -10 15 -15z m1140 12 c0 -13 -26 -32
-33 -24 -8 7 11 33 24 33 5 0 9 -4 9 -9z m-3440 -62 c0 -6 -4 -7 -10 -4 -5 3
-10 11 -10 16 0 6 5 7 10 4 6 -3 10 -11 10 -16z m2975 11 c-3 -5 -11 -10 -16
-10 -6 0 -7 5 -4 10 3 6 11 10 16 10 6 0 7 -4 4 -10z m-2275 -3 c0 -2 -12 -14
-27 -28 l-28 -24 24 28 c23 25 31 32 31 24z m1805 -71 c17 -12 32 -24 35 -27
3 -4 15 -10 28 -14 13 -4 22 -9 19 -11 -6 -6 -43 10 -92 41 -44 27 -70 34 -39
10 25 -19 14 -19 -22 0 -20 10 -23 15 -11 15 9 0 17 5 17 11 0 7 -10 9 -26 5
-22 -6 -24 -5 -12 8 14 15 40 6 103 -38z m985 45 c0 -12 -20 -25 -27 -18 -7 7
6 27 18 27 5 0 9 -4 9 -9z m-455 -41 c-3 -5 -12 -10 -18 -10 -7 0 -6 4 3 10
19 12 23 12 15 0z m-2425 -23 c0 -2 -19 -21 -42 -42 l-43 -40 40 43 c36 39 45
47 45 39z m2930 -16 c0 -14 -18 -23 -31 -15 -8 4 -7 9 2 15 18 11 29 11 29 0z
m-2515 -11 c-3 -5 -10 -10 -15 -10 -11 0 -21 -8 -121 -93 -38 -31 -83 -75
-100 -97 -18 -22 -36 -40 -41 -40 -9 0 24 40 67 81 l30 29 -30 1 c-16 1 -43 1
-60 1 l-30 -1 30 8 c17 5 47 9 67 10 20 0 43 7 50 14 7 6 30 23 50 37 21 14
38 29 38 33 0 4 15 14 33 22 39 17 40 17 32 5z m2070 -20 c-3 -5 -12 -10 -18
-10 -7 0 -6 4 3 10 19 12 23 12 15 0z m-490 -51 c14 -22 -3 -18 -26 7 -23 25
-23 26 -2 15 12 -6 25 -16 28 -22z m980 -10 c-8 -12 -35 -12 -35 0 0 11 22 20
33 14 4 -2 5 -9 2 -14z m-844 -16 c13 -16 12 -17 -3 -4 -10 7 -18 15 -18 17 0
8 8 3 21 -13z m409 3 c0 -3 -4 -8 -10 -11 -5 -3 -10 -1 -10 4 0 6 5 11 10 11
6 0 10 -2 10 -4z m470 -71 c-7 -8 -16 -12 -21 -9 -13 8 -1 24 18 24 13 0 13
-3 3 -15z m-428 -17 c-7 -7 -12 -8 -12 -2 0 14 12 26 19 19 2 -3 -1 -11 -7
-17z m-2761 -11 c-10 -9 -11 -8 -5 6 3 10 9 15 12 12 3 -3 0 -11 -7 -18z
m3225 -59 c-10 -6 -20 -7 -24 -3 -9 8 20 25 31 18 5 -3 2 -10 -7 -15z m-390 0
c4 -7 4 -10 -1 -6 -4 4 -14 3 -22 -4 -7 -6 -17 -8 -20 -4 -4 4 -1 11 7 16 20
13 27 12 36 -2z m-2536 -22 c0 -3 -4 -8 -10 -11 -5 -3 -10 -1 -10 4 0 6 5 11
10 11 6 0 10 -2 10 -4z m2604 -25 c-2 -3 -12 3 -22 13 -16 17 -16 18 5 5 12
-7 20 -15 17 -18z m-240 -7 c3 -8 2 -12 -4 -9 -6 3 -10 10 -10 16 0 14 7 11
14 -7z m606 -23 c0 -11 -31 -24 -39 -16 -3 3 1 10 9 15 19 12 30 12 30 1z
m-860 -11 c0 -5 -4 -10 -10 -10 -5 0 -10 5 -10 10 0 6 5 10 10 10 6 0 10 -4
10 -10z m445 0 c-3 -5 -11 -10 -16 -10 -6 0 -7 5 -4 10 3 6 11 10 16 10 6 0 7
-4 4 -10z m-440 -31 c11 -17 -1 -21 -15 -4 -8 9 -8 15 -2 15 6 0 14 -5 17 -11z
m-2211 -25 c3 -8 2 -12 -4 -9 -6 3 -10 10 -10 16 0 14 7 11 14 -7z m2691 -24
c-3 -5 -12 -10 -18 -10 -7 0 -6 4 3 10 19 12 23 12 15 0z m405 1 c0 -12 -28
-22 -34 -12 -3 5 -3 11 1 15 9 9 33 7 33 -3z m-745 -81 c3 -5 1 -10 -4 -10 -6
0 -11 5 -11 10 0 6 2 10 4 10 3 0 8 -4 11 -10z m370 -10 c-3 -5 -11 -10 -16
-10 -6 0 -7 5 -4 10 3 6 11 10 16 10 6 0 7 -4 4 -10z m405 1 c0 -11 -26 -22
-34 -14 -12 12 -5 23 14 23 11 0 20 -4 20 -9z m-385 -91 c-3 -5 -11 -10 -16
-10 -6 0 -7 5 -4 10 3 6 11 10 16 10 6 0 7 -4 4 -10z m405 0 c0 -5 -9 -10 -21
-10 -11 0 -17 5 -14 10 3 6 13 10 21 10 8 0 14 -4 14 -10z m-1480 -8 c0 -4
-44 -51 -98 -105 l-98 -98 -474 1 c-260 0 -476 3 -479 5 -3 3 40 51 94 105
l100 100 477 0 c263 0 478 -3 478 -8z m-1773 -46 c3 -3 -4 -6 -17 -6 -22 0
-23 -1 -5 -13 10 -8 14 -17 9 -20 -5 -3 -24 7 -42 21 l-33 27 41 -1 c22 -1 43
-4 47 -8z m2883 -30 c0 -2 -7 -6 -15 -10 -8 -3 -15 -1 -15 4 0 6 7 10 15 10 8
0 15 -2 15 -4z m390 -6 c0 -4 -7 -11 -16 -14 -22 -8 -24 -8 -24 7 0 7 9 13 20
14 11 1 20 -2 20 -7z m-380 -84 c0 -3 -4 -8 -10 -11 -5 -3 -10 -1 -10 4 0 6 5
11 10 11 6 0 10 -2 10 -4z m390 -16 c0 -5 -9 -10 -20 -10 -11 0 -20 5 -20 10
0 6 9 10 20 10 11 0 20 -4 20 -10z m-193 -82 c-3 -8 -6 -5 -6 6 -1 11 2 17 5
13 3 -3 4 -12 1 -19z m-187 2 c0 -5 -4 -10 -10 -10 -5 0 -10 5 -10 10 0 6 5
10 10 10 6 0 10 -4 10 -10z m390 -10 c0 -5 -9 -10 -20 -10 -11 0 -20 5 -20 10
0 6 9 10 20 10 11 0 20 -4 20 -10z m-2610 -71 c0 -6 -9 -8 -21 -4 -20 7 -20 5
6 -29 15 -19 32 -34 38 -33 6 1 11 -2 12 -8 1 -15 56 -70 67 -67 5 1 6 -3 3
-9 -5 -7 -37 18 -86 67 -44 43 -79 81 -79 84 0 3 14 7 30 8 17 1 30 -3 30 -9z
m992 -86 c54 -54 98 -103 98 -110 0 -10 -59 -13 -277 -12 -281 1 -689 14 -555
17 87 2 90 21 4 23 -55 2 -56 2 -17 9 22 4 31 8 20 9 l-20 2 20 9 c16 7 12 9
-18 9 -30 1 -39 6 -47 25 -4 13 -20 33 -34 44 -18 14 -22 22 -14 25 7 3 -7 6
-32 8 l-45 2 45 7 45 7 -62 3 c-78 3 -80 3 -89 13 -4 4 192 7 437 7 l444 0 97
-97z m1235 71 c-3 -3 -12 -4 -19 -1 -8 3 -5 6 6 6 11 1 17 -2 13 -5z m393 -3
c3 -1 -2 -5 -10 -10 -15 -10 -30 -6 -30 9 0 4 8 7 18 5 9 -2 19 -4 22 -4z
m-2600 -5 c0 -3 -4 -8 -10 -11 -5 -3 -10 -1 -10 4 0 6 5 11 10 11 6 0 10 -2
10 -4z m91 -58 c8 -15 8 -18 0 -14 -6 4 -16 16 -22 28 -8 15 -8 18 0 14 6 -4
16 -16 22 -28z m2116 -24 c-3 -3 -12 -4 -19 -1 -8 3 -5 6 6 6 11 1 17 -2 13
-5z m383 -4 c0 -5 -7 -10 -15 -10 -8 0 -15 5 -15 10 0 6 7 10 15 10 8 0 15 -4
15 -10z m-2410 -30 c0 -5 -8 -10 -17 -10 -15 0 -16 2 -3 10 19 12 20 12 20 0z
m-55 -58 c-6 -6 -35 18 -35 29 0 5 9 1 20 -8 11 -9 17 -19 15 -21z m30 8 c3
-5 1 -10 -4 -10 -6 0 -11 5 -11 10 0 6 2 10 4 10 3 0 8 -4 11 -10z m-958 -26
c24 -10 43 -24 43 -31 0 -7 -21 1 -47 19 -51 33 -64 44 -48 36 6 -2 29 -13 52
-24z m3010 20 c-3 -3 -12 -4 -19 -1 -8 3 -5 6 6 6 11 1 17 -2 13 -5z m383 -10
c0 -2 -7 -4 -15 -4 -8 0 -15 4 -15 10 0 5 7 7 15 4 8 -4 15 -8 15 -10z m-395
-84 c3 -5 1 -10 -4 -10 -6 0 -11 5 -11 10 0 6 2 10 4 10 3 0 8 -4 11 -10z
m390 -10 c-3 -5 -13 -10 -21 -10 -8 0 -14 5 -14 10 0 6 9 10 21 10 11 0 17 -4
14 -10z m-3615 -50 c0 -5 -2 -10 -4 -10 -3 0 -8 5 -11 10 -3 6 -1 10 4 10 6 0
11 -4 11 -10z m1238 3 c-10 -2 -26 -2 -35 0 -10 3 -2 5 17 5 19 0 27 -2 18 -5z
m862 0 c0 -4 -44 -52 -97 -105 l-98 -98 -265 2 c-178 2 -214 3 -109 5 143 3
157 5 152 21 -2 9 -19 26 -36 37 -18 11 -33 31 -35 43 -2 13 -14 27 -28 32
-13 5 -24 14 -24 20 0 5 -7 10 -15 10 -32 0 -13 19 23 22 20 2 -39 5 -132 6
-93 1 -172 4 -174 7 -3 3 184 5 416 5 232 0 422 -3 422 -7z m1500 -43 c12 -8
11 -10 -7 -10 -13 0 -23 5 -23 10 0 13 11 13 30 0z m-865 -107 c-3 -16 -10
-32 -15 -37 -5 -5 -4 7 2 27 13 43 23 50 13 10z m855 11 c0 -2 -7 -4 -15 -4
-8 0 -15 4 -15 10 0 5 7 7 15 4 8 -4 15 -8 15 -10z m-3242 -80 c-4 -3 -12 5
-18 18 -12 22 -12 22 6 6 10 -10 15 -20 12 -24z m2359 -6 c-3 -8 -6 -5 -6 6
-1 11 2 17 5 13 3 -3 4 -12 1 -19z m470 6 c-3 -3 -12 -4 -19 -1 -8 3 -5 6 6 6
11 1 17 -2 13 -5z m390 -10 c-3 -3 -12 -4 -19 -1 -8 3 -5 6 6 6 11 1 17 -2 13
-5z m-901 -91 c-13 -26 -32 -57 -40 -68 -9 -11 1 12 21 52 21 39 39 70 41 68
2 -2 -8 -25 -22 -52z m854 -93 c0 -7 -13 -7 -38 -1 -2 1 -1 5 3 11 6 10 35 2
35 -10z m-811 -4 c-9 -8 -119 -13 -113 -5 3 5 30 9 61 9 31 0 54 -2 52 -4z
m-2379 -52 c0 -2 -9 0 -20 6 -11 6 -20 13 -20 16 0 2 9 0 20 -6 11 -6 20 -13
20 -16z m2254 14 c-4 -7 -16 -25 -26 -40 -11 -16 -16 -34 -12 -40 4 -7 3 -10
-1 -5 -5 4 -22 -5 -39 -20 l-31 -28 26 30 c15 17 39 49 54 73 15 23 30 42 32
42 2 0 1 -6 -3 -12z m-2083 -40 c11 -21 11 -22 -4 -9 -10 7 -17 17 -17 22 0
15 9 10 21 -13z m2974 2 c3 -5 1 -10 -4 -10 -6 0 -11 5 -11 10 0 6 2 10 4 10
3 0 8 -4 11 -10z m-2984 -63 c80 -45 92 -46 54 -7 -16 16 -26 32 -23 35 3 3
13 -6 22 -20 30 -46 186 -193 252 -237 35 -24 64 -46 64 -50 0 -12 -131 84
-182 133 -26 25 -50 44 -53 41 -3 -3 -5 -1 -5 5 0 10 -52 46 -167 112 -40 23
-73 44 -73 48 0 3 10 -1 23 -9 12 -8 52 -31 88 -51z m-64 -87 c56 -71 175
-189 238 -235 22 -17 43 -34 47 -40 5 -7 8 -7 8 0 0 7 3 7 8 0 10 -14 81 -61
114 -76 15 -6 25 -15 23 -19 -3 -5 2 -11 11 -14 8 -3 12 -2 9 4 -3 5 28 -7 69
-26 41 -18 79 -34 85 -34 5 0 12 -4 16 -9 3 -6 -7 -6 -27 0 -50 14 -57 10 -18
-10 19 -11 39 -17 44 -14 5 4 6 1 2 -5 -8 -13 -17 -10 -124 40 -40 19 -69 38
-65 43 5 4 3 5 -3 2 -11 -6 -29 3 -137 67 -101 58 -305 250 -373 349 -19 29
-20 33 -5 44 9 6 19 9 22 5 3 -4 28 -36 56 -72z m3018 60 c3 -6 -1 -7 -9 -4
-18 7 -21 14 -7 14 6 0 13 -4 16 -10z m-978 -35 c0 -8 -5 -15 -12 -15 -6 0
-24 -14 -41 -31 -16 -17 -47 -45 -69 -62 -22 -17 -4 4 40 46 44 42 80 76 81
77 0 0 1 -7 1 -15z m943 -55 c0 -5 -7 -7 -15 -4 -8 4 -15 8 -15 10 0 2 7 4 15
4 8 0 15 -4 15 -10z m-1175 -135 c-16 -14 -34 -25 -40 -25 -9 0 55 49 65 49 3
0 -8 -11 -25 -24z m-1290 -73 c-3 -3 -11 0 -18 7 -9 10 -8 11 6 5 10 -3 15 -9
12 -12z m1132 -57 c23 -14 43 -28 43 -31 0 -3 -20 7 -44 21 -26 15 -51 23 -62
19 -16 -5 -16 -4 -4 5 20 14 17 15 67 -14z m908 15 c3 -6 -1 -7 -9 -4 -18 7
-21 14 -7 14 6 0 13 -4 16 -10z m65 -42 c0 -5 -11 -1 -25 8 -14 9 -25 18 -25
20 0 2 11 -2 25 -8 14 -6 25 -15 25 -20z m-1805 -22 c18 -8 36 -11 40 -8 4 4
5 1 3 -7 -2 -8 38 -37 104 -75 58 -33 105 -62 103 -64 -3 -4 -140 72 -209 116
-21 13 -55 30 -75 37 -20 8 -28 14 -18 14 10 1 33 -5 52 -13z m119 -24 c3 -5
-8 -6 -25 -4 -16 2 -29 6 -29 8 0 8 49 4 54 -4z m380 -1 c3 -4 -6 -6 -19 -3
-14 2 -25 6 -25 8 0 8 39 4 44 -5z m-271 -8 c-13 -2 -33 -2 -45 0 -13 2 -3 4
22 4 25 0 35 -2 23 -4z m-376 -89 c-3 -3 -12 -4 -19 -1 -8 3 -5 6 6 6 11 1 17
-2 13 -5z m40 -10 c-3 -3 -12 -4 -19 -1 -8 3 -5 6 6 6 11 1 17 -2 13 -5z m250
-50 c-3 -3 -12 -4 -19 -1 -8 3 -5 6 6 6 11 1 17 -2 13 -5z m1098 -4 c3 -6 -1
-7 -9 -4 -18 7 -21 14 -7 14 6 0 13 -4 16 -10z m-1770 -40 c3 -5 1 -10 -4 -10
-6 0 -11 5 -11 10 0 6 2 10 4 10 3 0 8 -4 11 -10z m1452 -307 c1 -33 -1 -35
-9 -16 -9 19 -6 53 5 53 2 0 3 -17 4 -37z m-710 -129 c-3 -3 -12 -4 -19 -1 -8
3 -5 6 6 6 11 1 17 -2 13 -5z"/>
<path d="M3575 3740 l-30 -8 35 0 c19 0 44 3 55 8 18 8 18 9 -5 8 -14 0 -38
-4 -55 -8z"/>
<path d="M3461 3736 c2 -2 15 -9 29 -15 24 -11 24 -11 6 3 -16 13 -49 24 -35
12z"/>
<path d="M3848 3723 c6 -2 18 -2 25 0 6 3 1 5 -13 5 -14 0 -19 -2 -12 -5z"/>
<path d="M4040 3690 c8 -5 20 -10 25 -10 6 0 3 5 -5 10 -8 5 -19 10 -25 10 -5
0 -3 -5 5 -10z"/>
<path d="M4158 3653 c7 -3 16 -2 19 1 4 3 -2 6 -13 5 -11 0 -14 -3 -6 -6z"/>
<path d="M4801 3053 c7 -12 15 -20 18 -17 3 2 -3 12 -13 22 -17 16 -18 16 -5
-5z"/>
<path d="M4830 3030 c0 -5 5 -10 10 -10 6 0 10 5 10 10 0 6 -4 10 -10 10 -5 0
-10 -4 -10 -10z"/>
<path d="M3162 2745 c-25 -28 -35 -45 -26 -45 8 0 17 8 21 18 3 9 17 29 31 45
14 15 23 27 20 27 -3 0 -23 -20 -46 -45z"/>
</g>
</svg>
